<svg id="visual" viewBox="0 0 900 600" width="900" height="600" xmlns="http://www.w3.org/2000/svg" xmlns:xlink="http://www.w3.org/1999/xlink" version="1.1"><rect x="0" y="0" width="900" height="600" fill="#ffffff"></rect><defs><linearGradient id="grad1_0" x1="33.3%" y1="100%" x2="100%" y2="0%"><stop offset="20%" stop-color="#b59bed" stop-opacity="1"></stop><stop offset="80%" stop-color="#b59bed" stop-opacity="1"></stop></linearGradient></defs><defs><linearGradient id="grad1_1" x1="33.3%" y1="100%" x2="100%" y2="0%"><stop offset="20%" stop-color="#b59bed" stop-opacity="1"></stop><stop offset="80%" stop-color="#dbccf7" stop-opacity="1"></stop></linearGradient></defs><defs><linearGradient id="grad1_2" x1="33.3%" y1="100%" x2="100%" y2="0%"><stop offset="20%" stop-color="#ffffff" stop-opacity="1"></stop><stop offset="80%" stop-color="#dbccf7" stop-opacity="1"></stop></linearGradient></defs><defs><linearGradient id="grad2_0" x1="0%" y1="100%" x2="66.7%" y2="0%"><stop offset="20%" stop-color="#b59bed" stop-opacity="1"></stop><stop offset="80%" stop-color="#b59bed" stop-opacity="1"></stop></linearGradient></defs><defs><linearGradient id="grad2_1" x1="0%" y1="100%" x2="66.7%" y2="0%"><stop offset="20%" stop-color="#dbccf7" stop-opacity="1"></stop><stop offset="80%" stop-color="#b59bed" stop-opacity="1"></stop></linearGradient></defs><defs><linearGradient id="grad2_2" x1="0%" y1="100%" x2="66.7%" y2="0%"><stop offset="20%" stop-color="#dbccf7" stop-opacity="1"></stop><stop offset="80%" stop-color="#ffffff" stop-opacity="1"></stop></linearGradient></defs><g transform="translate(900, 600)"><path d="M-440 0C-403.3 -50.7 -366.6 -101.3 -335.4 -138.9C-304.2 -176.5 -278.4 -201 -259.5 -259.5C-240.6 -318 -228.4 -410.5 -186.3 -449.7C-144.1 -488.9 -72.1 -475 0 -461L0 0Z" fill="#ede5fb"></path><path d="M-293.3 0C-268.9 -33.8 -244.4 -67.5 -223.6 -92.6C-202.8 -117.7 -185.6 -134 -173 -173C-160.4 -212 -152.3 -273.6 -124.2 -299.8C-96.1 -326 -48 -316.6 0 -307.3L0 0Z" fill="#c8b3f2"></path><path d="M-146.7 0C-134.4 -16.9 -122.2 -33.8 -111.8 -46.3C-101.4 -58.8 -92.8 -67 -86.5 -86.5C-80.2 -106 -76.1 -136.8 -62.1 -149.9C-48 -163 -24 -158.3 0 -153.7L0 0Z" fill="#b59bed"></path></g><g transform="translate(0, 0)"><path d="M486.7 0C482.3 69.8 477.9 139.5 437 181C396.1 222.5 318.7 235.8 268.7 268.7C218.7 301.6 196 354.2 155.8 376C115.5 397.8 57.8 388.9 0 380L0 0Z" fill="#ede5fb"></path><path d="M324.5 0C321.5 46.5 318.6 93 291.3 120.7C264.1 148.3 212.5 157.2 179.1 179.1C145.8 201.1 130.7 236.1 103.8 250.7C77 265.2 38.5 259.3 0 253.3L0 0Z" fill="#c8b3f2"></path><path d="M162.2 0C160.8 23.3 159.3 46.5 145.7 60.3C132 74.2 106.2 78.6 89.6 89.6C72.9 100.5 65.3 118.1 51.9 125.3C38.5 132.6 19.3 129.6 0 126.7L0 0Z" fill="#b59bed"></path></g></svg>