<svg id="visual" viewBox="0 0 960 540" width="960" height="540" xmlns="http://www.w3.org/2000/svg" xmlns:xlink="http://www.w3.org/1999/xlink" version="1.1"><rect x="0" y="0" width="960" height="540" fill="#ffffff"></rect><defs><linearGradient id="grad1_0" x1="43.8%" y1="0%" x2="100%" y2="100%"><stop offset="14.444444444444446%" stop-color="#ffffff" stop-opacity="1"></stop><stop offset="85.55555555555554%" stop-color="#ffffff" stop-opacity="1"></stop></linearGradient></defs><defs><linearGradient id="grad2_0" x1="0%" y1="0%" x2="56.3%" y2="100%"><stop offset="14.444444444444446%" stop-color="#ffffff" stop-opacity="1"></stop><stop offset="85.55555555555554%" stop-color="#ffffff" stop-opacity="1"></stop></linearGradient></defs><g transform="translate(960, 0)"><path d="M0 486C-42.7 433.9 -85.3 381.8 -152.3 367.7C-219.3 353.6 -310.5 377.4 -343.7 343.7C-376.8 309.9 -351.8 218.4 -365.9 151.5C-379.9 84.7 -432.9 42.3 -486 0L0 0Z" fill="#ced7ff"></path></g><g transform="translate(0, 540)"><path d="M0 -486C56.7 -461.9 113.4 -437.7 173 -417.6C232.6 -397.5 295.1 -381.4 343.7 -343.7C392.2 -305.9 426.7 -246.5 448.1 -185.6C469.5 -124.7 477.7 -62.4 486 0L0 0Z" fill="#cec7ff"></path></g></svg>
